<?xml version="1.0" encoding="UTF-8" standalone="no"?>
<svg
   xmlns:dc="http://purl.org/dc/elements/1.1/"
   xmlns:cc="http://creativecommons.org/ns#"
   xmlns:rdf="http://www.w3.org/1999/02/22-rdf-syntax-ns#"
   xmlns:svg="http://www.w3.org/2000/svg"
   xmlns="http://www.w3.org/2000/svg"
   id="svg23"
   version="1.1"
   width="512"
   viewBox="0 0 135.46666 135.46667"
   height="512">
  <metadata
     id="metadata29">
    <rdf:RDF>
      <cc:Work
         rdf:about="">
        <dc:format>image/svg+xml</dc:format>
        <dc:type
           rdf:resource="http://purl.org/dc/dcmitype/StillImage" />
        <dc:title></dc:title>
      </cc:Work>
    </rdf:RDF>
  </metadata>
  <defs
     id="defs27" />
  <linearGradient
     y2="178.01158"
     y1="287.64557"
     x2="16.4638"
     x1="124.22688"
     gradientUnits="userSpaceOnUse"
     gradientTransform="matrix(.99887741 0 0 .99887752 .076029 .257373)"
     id="a">
    <stop
       id="stop2"
       stop-color="#ffbe00"
       offset="0" />
    <stop
       id="stop4"
       stop-color="#f8fd64"
       offset="1" />
  </linearGradient>
  <g
     id="g21"
     transform="translate(0 -161.53332)">
    <rect
       id="rect7"
       y="164.15286"
       x="2.619537"
       width="130.2276"
       stroke-width="5.239073"
       stroke-linejoin="round"
       stroke-linecap="round"
       stroke="#030303"
       ry="10.465211"
       height="130.2276"
       fill="url(#a)" />
    <g
       id="g13"
       stroke-width=".264583"
       fill="#858585">
      <path
         id="path9"
         d="m25.475798 192.86928h15.192872q14.710557 0 19.87131 1.35047 5.208985 1.35048 7.90994 4.43729 2.700955 3.0868 3.376193 6.89708.675239 3.76204.675239 14.85525v27.34717q0 10.51443-1.012858 14.08355-.964627 3.52089-3.424425 5.5466-2.459798 1.97749-6.077148 2.79742-3.617351.7717-10.900283.7717h-25.61084zm20.305393 13.36008v51.36637q4.389052 0 5.40191-1.73633 1.012858-1.78456 1.012858-9.59803v-30.33752q0-5.30544-.337619-6.80061-.33762-1.49518-1.543403-2.17041-1.205783-.72347-4.533746-.72347z" />
      <path
         id="path11"
         d="m80.073672 192.86928h33.858398v15.62695h-13.55301v14.80702h12.68485v14.85525h-12.68485v17.17036h14.90349v15.62695h-35.208878z" />
    </g>
    <g
       id="g19"
       stroke-width=".264583">
      <path
         id="path15"
         d="m22.829962 190.2234h15.192872q14.710558 0 19.871311 1.35048 5.208984 1.35048 7.909939 4.43728 2.700955 3.08681 3.376194 6.89708.675238 3.76205.675238 14.85526v27.34716q0 10.51443-1.012858 14.08355-.964627 3.52089-3.424425 5.54661-2.459798 1.97748-6.077148 2.79742-3.617351.7717-10.900282.7717h-25.610841zm20.305393 13.36008v51.36638q4.389052 0 5.40191-1.73633 1.012858-1.78456 1.012858-9.59804v-30.33751q0-5.30545-.337619-6.80062-.337619-1.49517-1.543403-2.17041-1.205783-.72347-4.533746-.72347z" />
      <path
         id="path17"
         d="m77.427836 190.2234h33.858394v15.62695h-13.553001v14.80703h12.684841v14.85525h-12.684841v17.17035h14.903481v15.62696h-35.208874z" />
    </g>
  </g>
</svg>
